{
  "accessors": [
    {
      "bufferView": 2,
      "componentType": 5126,
      "count": 192,
      "max": [
        0.7783079743385315,
        0.3036060035228729,
        12.246321678161621
      ],
      "min": [
        -0.7783079743385315,
        -1.0930060148239136,
        12.181243896484375
      ],
      "type": "VEC3"
    },
    {
      "bufferView": 2,
      "byteOffset": 2304,
      "componentType": 5126,
      "count": 192,
      "max": [
        0.11089485883712769,
        0.1474967747926712,
        0.9952000975608826
      ],
      "min": [
        -0.18579517304897308,
        -0.33649125695228577,
        -0.9973006248474121
      ],
      "type": "VEC3"
    },
    {
      "bufferView": 1,
      "componentType": 5126,
      "count": 192,
      "max": [
        0.5744159817695618,
        0.723671019077301
      ],
      "min": [
        0.2359209954738617,
        0.43000900745391846
      ],
      "type": "VEC2"
    },
    {
      "bufferView": 0,
      "componentType": 5125,
      "count": 288,
      "type": "SCALAR"
    },
    {
      "bufferView": 2,
      "byteOffset": 4608,
      "componentType": 5126,
      "count": 15697,
      "max": [
        6.222480773925781,
        1.9755059480667114,
        18.75767707824707
      ],
      "min": [
        -5.9212470054626465,
        -2.9680709838867188,
        6.3226728439331055
      ],
      "type": "VEC3"
    },
    {
      "bufferView": 2,
      "byteOffset": 192972,
      "componentType": 5126,
      "count": 15697,
      "max": [
        0.9998561143875122,
        0.9999200105667114,
        0.9993377923965454
      ],
      "min": [
        -0.9999651908874512,
        -0.9998842477798462,
        -0.9998961687088013
      ],
      "type": "VEC3"
    },
    {
      "bufferView": 1,
      "byteOffset": 1536,
      "componentType": 5126,
      "count": 15697,
      "max": [
        0.9951779842376709,
        0.9924349784851074
      ],
      "min": [
        0.012803000397980213,
        0.003667999990284443
      ],
      "type": "VEC2"
    },
    {
      "bufferView": 0,
      "byteOffset": 1152,
      "componentType": 5125,
      "count": 86964,
      "type": "SCALAR"
    },
    {
      "bufferView": 2,
      "byteOffset": 381336,
      "componentType": 5126,
      "count": 23769,
      "max": [
        5.686229228973389,
        7.387416839599609,
        21.260223388671875
      ],
      "min": [
        -5.4512200355529785,
        -1.3722519874572754,
        -0.04270099848508835
      ],
      "type": "VEC3"
    },
    {
      "bufferView": 2,
      "byteOffset": 666564,
      "componentType": 5126,
      "count": 23769,
      "max": [
        0.9999880790710449,
        0.9997727274894714,
        0.999688446521759
      ],
      "min": [
        -0.9998237490653992,
        -0.9999929666519165,
        -0.99948650598526
      ],
      "type": "VEC3"
    },
    {
      "bufferView": 1,
      "byteOffset": 127112,
      "componentType": 5126,
      "count": 23769,
      "max": [
        0.9965140223503113,
        0.9912229776382446
      ],
      "min": [
        0.0014929999597370625,
        0.002623999956995249
      ],
      "type": "VEC2"
    },
    {
      "bufferView": 0,
      "byteOffset": 349008,
      "componentType": 5125,
      "count": 136218,
      "type": "SCALAR"
    },
    {
      "bufferView": 2,
      "byteOffset": 951792,
      "componentType": 5126,
      "count": 4324,
      "max": [
        5.230441093444824,
        1.6447060108184814,
        18.07138442993164
      ],
      "min": [
        -2.7394330501556396,
        -1.8770840167999268,
        4.745965957641602
      ],
      "type": "VEC3"
    },
    {
      "bufferView": 2,
      "byteOffset": 1003680,
      "componentType": 5126,
      "count": 4324,
      "max": [
        0.9999017715454102,
        0.9993138313293457,
        0.9999274015426636
      ],
      "min": [
        -0.9995341897010803,
        -0.9997219443321228,
        -0.9959717392921448
      ],
      "type": "VEC3"
    },
    {
      "bufferView": 1,
      "byteOffset": 317264,
      "componentType": 5126,
      "count": 4324,
      "max": [
        0.998009979724884,
        0.9995499849319458
      ],
      "min": [
        0.0016589999431744218,
        0.009828999638557434
      ],
      "type": "VEC2"
    },
    {
      "bufferView": 0,
      "byteOffset": 893880,
      "componentType": 5125,
      "count": 21024,
      "type": "SCALAR"
    }
  ],
  "asset": {
    "extras": {
      "author": "Carly.Simmons (https://sketchfab.com/Carly.Simmons)",
      "license": "CC-BY-4.0 (http://creativecommons.org/licenses/by/4.0/)",
      "source": "https://sketchfab.com/3d-models/rabbit-warrior-e5b63201f4b9438e803375de111b1a53",
      "title": "Rabbit Warrior"
    },
    "generator": "Sketchfab-12.68.0",
    "version": "2.0"
  },
  "bufferViews": [
    {
      "buffer": 0,
      "byteLength": 977976,
      "name": "floatBufferViews",
      "target": 34963
    },
    {
      "buffer": 0,
      "byteLength": 351856,
      "byteOffset": 977976,
      "byteStride": 8,
      "name": "floatBufferViews",
      "target": 34962
    },
    {
      "buffer": 0,
      "byteLength": 1055568,
      "byteOffset": 1329832,
      "byteStride": 12,
      "name": "floatBufferViews",
      "target": 34962
    }
  ],
  "buffers": [
    {
      "byteLength": 2385400,
      "uri": "scene.bin"
    }
  ],
  "extensionsUsed": [
    "KHR_materials_unlit"
  ],
  "images": [
    {
      "uri": "textures/Dress_baseColor.png"
    },
    {
      "uri": "textures/Hair_baseColor.png"
    },
    {
      "uri": "textures/Skin_baseColor.png"
    }
  ],
  "materials": [
    {
      "doubleSided": true,
      "extensions": {
        "KHR_materials_unlit": {}
      },
      "name": "Dress",
      "pbrMetallicRoughness": {
        "baseColorTexture": {
          "index": 0
        },
        "metallicFactor": 0.0
      }
    },
    {
      "doubleSided": true,
      "extensions": {
        "KHR_materials_unlit": {}
      },
      "name": "Hair",
      "pbrMetallicRoughness": {
        "baseColorTexture": {
          "index": 1
        },
        "metallicFactor": 0.0
      }
    },
    {
      "doubleSided": true,
      "extensions": {
        "KHR_materials_unlit": {}
      },
      "name": "Skin",
      "pbrMetallicRoughness": {
        "baseColorTexture": {
          "index": 2
        },
        "metallicFactor": 0.0
      }
    }
  ],
  "meshes": [
    {
      "name": "Object_0",
      "primitives": [
        {
          "attributes": {
            "NORMAL": 1,
            "POSITION": 0,
            "TEXCOORD_0": 2
          },
          "indices": 3,
          "material": 0,
          "mode": 4
        }
      ]
    },
    {
      "name": "Object_1",
      "primitives": [
        {
          "attributes": {
            "NORMAL": 5,
            "POSITION": 4,
            "TEXCOORD_0": 6
          },
          "indices": 7,
          "material": 0,
          "mode": 4
        }
      ]
    },
    {
      "name": "Object_2",
      "primitives": [
        {
          "attributes": {
            "NORMAL": 9,
            "POSITION": 8,
            "TEXCOORD_0": 10
          },
          "indices": 11,
          "material": 1,
          "mode": 4
        }
      ]
    },
    {
      "name": "Object_3",
      "primitives": [
        {
          "attributes": {
            "NORMAL": 13,
            "POSITION": 12,
            "TEXCOORD_0": 14
          },
          "indices": 15,
          "material": 2,
          "mode": 4
        }
      ]
    }
  ],
  "nodes": [
    {
      "children": [
        1
      ],
      "matrix": [
        1.0,
        0.0,
        0.0,
        0.0,
        0.0,
        2.220446049250313e-16,
        -1.0,
        0.0,
        0.0,
        1.0,
        2.220446049250313e-16,
        0.0,
        0.0,
        0.0,
        0.0,
        1.0
      ],
      "name": "Sketchfab_model"
    },
    {
      "children": [
        2,
        3,
        4,
        5
      ],
      "name": "Posed.obj.cleaner.materialmerger.gles"
    },
    {
      "mesh": 0,
      "name": "Object_2"
    },
    {
      "mesh": 1,
      "name": "Object_3"
    },
    {
      "mesh": 2,
      "name": "Object_4"
    },
    {
      "mesh": 3,
      "name": "Object_5"
    }
  ],
  "samplers": [
    {
      "magFilter": 9729,
      "minFilter": 9987,
      "wrapS": 10497,
      "wrapT": 10497
    }
  ],
  "scene": 0,
  "scenes": [
    {
      "name": "Sketchfab_Scene",
      "nodes": [
        0
      ]
    }
  ],
  "textures": [
    {
      "sampler": 0,
      "source": 0
    },
    {
      "sampler": 0,
      "source": 1
    },
    {
      "sampler": 0,
      "source": 2
    }
  ]
}
